<svg xmlns="http://www.w3.org/2000/svg" viewBox="0 0 64 64">
    <!-- Define the pixel size -->
    <defs>
        <pattern id="pixel" width="1" height="1" patternUnits="userSpaceOnUse">
            <rect width="0.9" height="0.9" fill="currentColor"/>
        </pattern>
    </defs>

    <!-- Base colors -->
    <style>
        .fur-dark { fill: #8B4513; }
        .fur-light { fill: #D2691E; }
        .nose { fill: #1a1a1a; }
        .tongue { fill: #FF69B4; }
        .eye { fill: #000000; }
        .shine { fill: #FFFFFF; }
        .pixel { fill: url(#pixel); }
    </style>

    <!-- Background face shape - Light brown -->
    <g class="fur-light">
        <!-- Main face -->
        <rect x="16" y="12" width="32" height="32"/>
        <!-- Ears -->
        <rect x="12" y="8" width="8" height="12"/>
        <rect x="44" y="8" width="8" height="12"/>
    </g>

    <!-- Darker brown patches -->
    <g class="fur-dark">
        <!-- Ear patches -->
        <rect x="12" y="8" width="4" height="8"/>
        <rect x="48" y="8" width="4" height="8"/>
        <!-- Eye patches -->
        <rect x="20" y="24" width="8" height="8"/>
        <rect x="36" y="24" width="8" height="8"/>
    </g>

    <!-- Eyes -->
    <g class="eye">
        <!-- Left eye -->
        <rect x="22" y="26" width="4" height="4"/>
        <!-- Right eye -->
        <rect x="38" y="26" width="4" height="4"/>
    </g>

    <!-- Eye shine -->
    <g class="shine">
        <rect x="23" y="27" width="2" height="2"/>
        <rect x="39" y="27" width="2" height="2"/>
    </g>

    <!-- Nose -->
    <g class="nose">
        <rect x="28" y="32" width="8" height="4"/>
    </g>

    <!-- Happy mouth -->
    <g class="tongue">
        <rect x="28" y="36" width="8" height="4"/>
        <rect x="30" y="38" width="4" height="2"/>
    </g>

    <!-- Cheek dots -->
    <g class="fur-dark">
        <rect x="16" y="32" width="4" height="4"/>
        <rect x="44" y="32" width="4" height="4"/>
    </g>
</svg>